<?xml version="1.0" encoding="utf-8"?>
<!-- Generator: Adobe Illustrator 21.1.0, SVG Export Plug-In . SVG Version: 6.00 Build 0)  -->
<svg version="1.1" id="Layer_1" xmlns="http://www.w3.org/2000/svg" xmlns:xlink="http://www.w3.org/1999/xlink" x="0px" y="0px"
	 viewBox="0 0 351 203" style="enable-background:new 0 0 351 203;" xml:space="preserve">
<style type="text/css">
	.st0{fill:#232427;}
	.st1{fill:#82D121;}
</style>
<polygon class="st0" points="77.4,113.7 80.9,113.7 80.9,92.3 88.5,92.3 88.5,89.1 69.8,89.1 69.8,92.3 77.4,92.3 "/>
<path class="st0" d="M92.5,87.2v26.4h3.4v-11.1c0-3,2.2-4.1,4.2-4.1c2.6,0,3.8,1.4,3.8,4.4v10.8h3.4v-11.8c0-4.1-2.4-6.5-6.5-6.5
	c-1.9,0-3.7,0.8-4.9,2.1V87.2H92.5z"/>
<path class="st0" d="M119.2,98.3c2,0,4.3,1.3,4.5,4.9h-9.8C114.4,100.3,116.6,98.3,119.2,98.3 M119.2,95.3c-4.3,0-8.7,3.3-8.7,9.5
	c0,5.7,3.6,9.3,9.1,9.3c2.3,0,4.5-0.7,6.3-2l0.1-0.1v-3.5l-0.3,0.3c-1.7,1.5-3.7,2.3-5.8,2.3c-3.2,0-5.5-2-6-5.2h13l0-0.2
	c0.1-0.4,0.1-0.8,0.1-1.4C127,98.1,123.1,95.3,119.2,95.3"/>
<path class="st0" d="M139.1,110.8c-3.1,0-5.4-2.6-5.4-6.2c0-3.6,2.3-6.2,5.4-6.2c3.1,0,5.4,2.7,5.4,6.2
	C144.4,108.2,142.2,110.8,139.1,110.8 M144.6,110.9l0.3,2.8h2.8v-18h-2.8l-0.3,2.8c-1.4-2-3.6-3.2-6.1-3.2c-4,0-8.2,3.5-8.2,9.4
	c0,5.9,4.2,9.4,8.2,9.4C141,114,143.2,112.9,144.6,110.9"/>
<path class="st0" d="M160.1,113.9c1,0,1.8-0.1,2.1-0.2l0.2,0v-3l-0.2,0c-0.6,0.1-1.1,0.2-1.5,0.2c-1.7,0-3.7-0.6-3.7-3.7v-8.5h5v-3
	h-5v-4.1h-3.3v4.1h-2.7v3h2.6v8.6C153.6,111.4,156,113.9,160.1,113.9"/>
<path class="st0" d="M173.5,95.5c-1.6,0-3.7,0.7-4.9,2.6l-0.3-2.4h-2.8v18h3.4v-10.2c0-3.5,2.4-4.7,4.5-4.7c0.4,0,0.8,0.1,1.2,0.1
	l0.2,0v-3.3l-0.2,0C174.4,95.5,174,95.5,173.5,95.5"/>
<path class="st0" d="M186,98.3c2,0,4.3,1.3,4.5,4.9h-9.8C181.2,100.3,183.4,98.3,186,98.3 M186,95.3c-4.3,0-8.7,3.3-8.7,9.5
	c0,5.7,3.6,9.3,9.1,9.3c2.3,0,4.5-0.7,6.3-2l0.1-0.1v-3.5l-0.3,0.3c-1.7,1.5-3.7,2.3-5.8,2.3c-3.2,0-5.5-2-6-5.2h13l0-0.2
	c0.1-0.4,0.1-0.8,0.1-1.4C193.8,98.1,189.9,95.3,186,95.3"/>
<polygon class="st0" points="110.8,54.2 123.9,73.1 127,73.1 127,48.5 123.7,48.5 123.7,67 110.8,48.5 107.4,48.5 107.4,73.1 
	110.8,73.1 "/>
<path class="st0" d="M139.1,70.3c-3.1,0-5.4-2.6-5.4-6.2c0-3.6,2.3-6.2,5.4-6.2c3.1,0,5.4,2.6,5.4,6.2
	C144.4,67.6,142.2,70.3,139.1,70.3 M138.4,73.5c2.5,0,4.8-1.2,6.1-3.2l0.3,2.8h2.8v-18h-2.8l-0.3,2.8c-1.4-2-3.6-3.2-6.1-3.2
	c-4,0-8.2,3.5-8.2,9.4C130.2,70,134.4,73.5,138.4,73.5"/>
<path class="st0" d="M153.6,66.7c0,4.1,2.4,6.6,6.5,6.6c1,0,1.8-0.1,2.1-0.2l0.2,0v-3l-0.2,0c-0.6,0.1-1.1,0.2-1.5,0.2
	c-1.7,0-3.7-0.6-3.7-3.7v-8.5h5v-3h-5v-4.1h-3.3v4.1h-2.7v3h2.6V66.7z"/>
<rect x="165.6" y="55.1" class="st0" width="3.4" height="18"/>
<path class="st0" d="M181.2,57.9c2.7,0,5.5,2.1,5.5,6.2c0,4-2.8,6.2-5.5,6.2c-2.8,0-5.5-2.1-5.5-6.2C175.6,60,178.4,57.9,181.2,57.9
	 M181.2,73.5c5.1,0,8.9-4,8.9-9.4c0-5.4-3.8-9.4-8.9-9.4c-5.1,0-9,4-9,9.4C172.2,69.4,176.1,73.5,181.2,73.5"/>
<path class="st0" d="M196.7,62.1c0-2.4,1.8-4.2,4.2-4.2c2.6,0,3.8,1.4,3.8,4.3v10.8h3.4V61.2c0-4-2.5-6.5-6.5-6.5
	c-2.1,0-4.1,1-5.3,2.8l-0.3-2.4h-2.7v18h3.4V62.1z"/>
<path class="st0" d="M220.2,70.3c-3.1,0-5.4-2.6-5.4-6.2c0-3.6,2.3-6.2,5.4-6.2c3.1,0,5.4,2.6,5.4,6.2
	C225.5,67.6,223.3,70.3,220.2,70.3 M225.7,57.9c-1.4-2-3.6-3.2-6.1-3.2c-4,0-8.2,3.5-8.2,9.4c0,5.9,4.2,9.4,8.2,9.4
	c2.5,0,4.8-1.2,6.1-3.2l0.3,2.8h2.8v-18H226L225.7,57.9z"/>
<rect x="233.7" y="46.9" class="st0" width="3.4" height="26.2"/>
<path class="st0" d="M169.3,48.9c0,1.1-0.9,2-2,2c-1.1,0-2-0.9-2-2c0-1.1,0.9-2,2-2C168.4,46.9,169.3,47.8,169.3,48.9"/>
<path class="st1" d="M256.5,46.9c1.1,0,2,0.9,2,2c0,1.1-0.9,2-2,2h-8.1c-1.1,0-2-0.9-2-2c0-1.1,0.9-2,2-2H256.5z"/>
<path class="st1" d="M272.8,46.9c1.1,0,2,0.9,2,2c0,1.1-0.9,2-2,2h-8.1c-1.1,0-2-0.9-2-2c0-1.1,0.9-2,2-2H272.8z"/>
<path class="st1" d="M289,46.9c1.1,0,2,0.9,2,2c0,1.1-0.9,2-2,2h-8.1c-1.1,0-2-0.9-2-2c0-1.1,0.9-2,2-2H289z"/>
<path class="st1" d="M305.2,46.9c1.1,0,2,0.9,2,2c0,1.1-0.9,2-2,2h-8.1c-1.1,0-2-0.9-2-2c0-1.1,0.9-2,2-2H305.2z"/>
<path class="st1" d="M169.3,32.7c0,1.1-0.9,2-2,2c-1.1,0-2-0.9-2-2v-8.1c0-1.1,0.9-2,2-2c1.1,0,2,0.9,2,2V32.7z"/>
<path class="st1" d="M191.6,6.3c1.1,0,2,0.9,2,2s-0.9,2-2,2h-8.1c-1.1,0-2-0.9-2-2s0.9-2,2-2H191.6z"/>
<path class="st1" d="M207.9,6.3c1.1,0,2,0.9,2,2s-0.9,2-2,2h-8.1c-1.1,0-2-0.9-2-2s0.9-2,2-2H207.9z"/>
<path class="st1" d="M224.1,6.3c1.1,0,2,0.9,2,2s-0.9,2-2,2H216c-1.1,0-2-0.9-2-2s0.9-2,2-2H224.1z"/>
<path class="st1" d="M240.3,6.3c1.1,0,2,0.9,2,2s-0.9,2-2,2h-8.1c-1.1,0-2-0.9-2-2s0.9-2,2-2H240.3z"/>
<path class="st1" d="M256.5,6.3c1.1,0,2,0.9,2,2s-0.9,2-2,2h-8.1c-1.1,0-2-0.9-2-2s0.9-2,2-2H256.5z"/>
<path class="st1" d="M272.8,6.3c1.1,0,2,0.9,2,2s-0.9,2-2,2h-8.1c-1.1,0-2-0.9-2-2s0.9-2,2-2H272.8z"/>
<path class="st1" d="M289,6.3c1.1,0,2,0.9,2,2s-0.9,2-2,2h-8.1c-1.1,0-2-0.9-2-2s0.9-2,2-2H289z"/>
<path class="st1" d="M305.2,6.3c1.1,0,2,0.9,2,2s-0.9,2-2,2h-8.1c-1.1,0-2-0.9-2-2s0.9-2,2-2H305.2z"/>
<path class="st1" d="M175.4,6.3c1.1,0,2,0.9,2,2s-0.9,2-2,2h-8.1c-1.1,0-2-0.9-2-2s0.9-2,2-2H175.4z"/>
<path class="st1" d="M165.2,8.3c0-1.1,0.9-2,2-2c1.1,0,2,0.9,2,2v8.1c0,1.1-0.9,2-2,2c-1.1,0-2-0.9-2-2V8.3z"/>
<path class="st1" d="M323.5,32.7c0,1.1-0.9,2-2,2c-1.1,0-2-0.9-2-2v-8.1c0-1.1,0.9-2,2-2c1.1,0,2,0.9,2,2V32.7z"/>
<path class="st1" d="M305.2,46.9c1.1,0,2,0.9,2,2c0,1.1-0.9,2-2,2h-8.1c-1.1,0-2-0.9-2-2c0-1.1,0.9-2,2-2H305.2z"/>
<path class="st1" d="M305.2,46.9c1.1,0,2,0.9,2,2c0,1.1-0.9,2-2,2h-8.1c-1.1,0-2-0.9-2-2c0-1.1,0.9-2,2-2H305.2z"/>
<path class="st1" d="M313.4,50.9c-1.1,0-2-0.9-2-2c0-1.1,0.9-2,2-2h8.1c1.1,0,2,0.9,2,2c0,1.1-0.9,2-2,2H313.4z"/>
<path class="st1" d="M323.5,48.9c0,1.1-0.9,2-2,2c-1.1,0-2-0.9-2-2v-8.1c0-1.1,0.9-2,2-2c1.1,0,2,0.9,2,2V48.9z"/>
<path class="st1" d="M305.2,6.3c1.1,0,2,0.9,2,2s-0.9,2-2,2h-8.1c-1.1,0-2-0.9-2-2s0.9-2,2-2H305.2z"/>
<path class="st1" d="M305.2,6.3c1.1,0,2,0.9,2,2s-0.9,2-2,2h-8.1c-1.1,0-2-0.9-2-2s0.9-2,2-2H305.2z"/>
<path class="st1" d="M313.4,6.3c-1.1,0-2,0.9-2,2s0.9,2,2,2h8.1c1.1,0,2-0.9,2-2s-0.9-2-2-2H313.4z"/>
<path class="st1" d="M323.5,8.3c0-1.1-0.9-2-2-2c-1.1,0-2,0.9-2,2v8.1c0,1.1,0.9,2,2,2c1.1,0,2-0.9,2-2V8.3z"/>
<path class="st1" d="M121.9,154.2c-1.1,0-2-0.9-2-2c0-1.1,0.9-2,2-2h8.1c1.1,0,2,0.9,2,2c0,1.1-0.9,2-2,2H121.9z"/>
<path class="st1" d="M105.7,154.2c-1.1,0-2-0.9-2-2c0-1.1,0.9-2,2-2h8.1c1.1,0,2,0.9,2,2c0,1.1-0.9,2-2,2H105.7z"/>
<path class="st1" d="M89.5,154.2c-1.1,0-2-0.9-2-2c0-1.1,0.9-2,2-2h8.1c1.1,0,2,0.9,2,2c0,1.1-0.9,2-2,2H89.5z"/>
<path class="st1" d="M73.2,154.2c-1.1,0-2-0.9-2-2c0-1.1,0.9-2,2-2h8.1c1.1,0,2,0.9,2,2c0,1.1-0.9,2-2,2H73.2z"/>
<path class="st1" d="M57,154.2c-1.1,0-2-0.9-2-2c0-1.1,0.9-2,2-2h8.1c1.1,0,2,0.9,2,2c0,1.1-0.9,2-2,2H57z"/>
<path class="st1" d="M40.8,154.2c-1.1,0-2-0.9-2-2c0-1.1,0.9-2,2-2h8.1c1.1,0,2,0.9,2,2c0,1.1-0.9,2-2,2H40.8z"/>
<path class="st1" d="M24.5,154.2c-1.1,0-2-0.9-2-2c0-1.1,0.9-2,2-2h8.1c1.1,0,2,0.9,2,2c0,1.1-0.9,2-2,2H24.5z"/>
<path class="st1" d="M144.2,127.9c0-1.1,0.9-2,2-2c1.1,0,2,0.9,2,2v8.1c0,1.1-0.9,2-2,2c-1.1,0-2-0.9-2-2V127.9z"/>
<path class="st1" d="M144.2,127.9c0-1.1,0.9-2,2-2c1.1,0,2,0.9,2,2v8.1c0,1.1-0.9,2-2,2c-1.1,0-2-0.9-2-2V127.9z"/>
<path class="st1" d="M138.1,154.2c-1.1,0-2-0.9-2-2c0-1.1,0.9-2,2-2h8.1c1.1,0,2,0.9,2,2c0,1.1-0.9,2-2,2H138.1z"/>
<path class="st1" d="M148.3,152.2c0,1.1-0.9,2-2,2c-1.1,0-2-0.9-2-2v-8.1c0-1.1,0.9-2,2-2c1.1,0,2,0.9,2,2V152.2z"/>
<path class="st1" d="M57,113.7c-1.1,0-2-0.9-2-2s0.9-2,2-2h8.1c1.1,0,2,0.9,2,2s-0.9,2-2,2H57z"/>
<path class="st1" d="M40.8,113.7c-1.1,0-2-0.9-2-2s0.9-2,2-2h8.1c1.1,0,2,0.9,2,2s-0.9,2-2,2H40.8z"/>
<path class="st1" d="M24.5,113.7c-1.1,0-2-0.9-2-2s0.9-2,2-2h8.1c1.1,0,2,0.9,2,2s-0.9,2-2,2H24.5z"/>
<path class="st1" d="M6.3,127.9c0-1.1,0.9-2,2-2c1.1,0,2,0.9,2,2v8.1c0,1.1-0.9,2-2,2c-1.1,0-2-0.9-2-2V127.9z"/>
<path class="st1" d="M40.8,154.2c-1.1,0-2-0.9-2-2c0-1.1,0.9-2,2-2h8.1c1.1,0,2,0.9,2,2c0,1.1-0.9,2-2,2H40.8z"/>
<path class="st1" d="M24.5,154.2c-1.1,0-2-0.9-2-2c0-1.1,0.9-2,2-2h8.1c1.1,0,2,0.9,2,2c0,1.1-0.9,2-2,2H24.5z"/>
<path class="st1" d="M24.5,154.2c-1.1,0-2-0.9-2-2c0-1.1,0.9-2,2-2h8.1c1.1,0,2,0.9,2,2c0,1.1-0.9,2-2,2H24.5z"/>
<path class="st1" d="M16.4,154.2c1.1,0,2-0.9,2-2c0-1.1-0.9-2-2-2H8.3c-1.1,0-2,0.9-2,2c0,1.1,0.9,2,2,2H16.4z"/>
<path class="st1" d="M6.3,152.2c0,1.1,0.9,2,2,2c1.1,0,2-0.9,2-2v-8.1c0-1.1-0.9-2-2-2c-1.1,0-2,0.9-2,2V152.2z"/>
<path class="st1" d="M40.8,113.7c-1.1,0-2-0.9-2-2s0.9-2,2-2h8.1c1.1,0,2,0.9,2,2s-0.9,2-2,2H40.8z"/>
<path class="st1" d="M24.5,113.7c-1.1,0-2-0.9-2-2s0.9-2,2-2h8.1c1.1,0,2,0.9,2,2s-0.9,2-2,2H24.5z"/>
<path class="st1" d="M24.5,113.7c-1.1,0-2-0.9-2-2s0.9-2,2-2h8.1c1.1,0,2,0.9,2,2s-0.9,2-2,2H24.5z"/>
<path class="st1" d="M16.4,109.6c1.1,0,2,0.9,2,2s-0.9,2-2,2H8.3c-1.1,0-2-0.9-2-2s0.9-2,2-2H16.4z"/>
<path class="st1" d="M6.3,111.6c0-1.1,0.9-2,2-2c1.1,0,2,0.9,2,2v8.1c0,1.1-0.9,2-2,2c-1.1,0-2-0.9-2-2V111.6z"/>
<path class="st0" d="M220.2,151.4c-3.1,0-5.4-2.6-5.4-6.2c0-3.6,2.3-6.2,5.4-6.2c3.1,0,5.4,2.6,5.4,6.2
	C225.5,148.8,223.3,151.4,220.2,151.4 M225.7,139.1c-1.4-2-3.6-3.2-6.1-3.2c-4,0-8.2,3.5-8.2,9.4c0,5.9,4.2,9.4,8.2,9.4
	c2.5,0,4.8-1.2,6.1-3.2l0.3,2.8h2.8v-18H226L225.7,139.1z"/>
<rect x="233.7" y="127.8" class="st0" width="3.4" height="26.4"/>
<polygon class="st0" points="202.4,149.4 196,129.6 192.8,129.6 186.5,149.4 181,129.8 181,129.6 177.3,129.6 184.7,154.2 
	188.2,154.2 194.4,134.8 200.6,154.2 204.1,154.2 211.4,129.6 207.8,129.6 "/>
<path class="st0" d="M249,138.9c2,0,4.3,1.3,4.5,4.9h-9.8C244.2,140.9,246.3,138.9,249,138.9 M249,135.8c-4.3,0-8.7,3.3-8.7,9.5
	c0,5.7,3.6,9.3,9.1,9.3c2.3,0,4.5-0.7,6.3-2l0.1-0.1v-3.5l-0.3,0.3c-1.7,1.5-3.7,2.3-5.8,2.3c-3.2,0-5.5-2-6-5.2h13l0-0.2
	c0.1-0.4,0.1-0.8,0.1-1.4C256.8,138.6,252.9,135.8,249,135.8"/>
<path class="st0" d="M267.2,143.7c-2.6-0.7-3.8-1.3-3.8-2.6c0-1.4,1.2-2.2,3.2-2.2c1.9,0,3.8,0.7,5.1,1.8l0.3,0.3v-3.5l-0.1-0.1
	c-1.3-1-3.3-1.6-5.4-1.6c-3.9,0-6.5,2.2-6.5,5.4c0,3.4,3.1,4.4,5.6,5.1c2.6,0.8,4,1.3,4,2.8c0,1.5-1.4,2.4-3.5,2.4
	c-2.2,0-4.3-0.9-5.8-2.4l-0.4-0.4v3.8l0.1,0.1c1.6,1.3,3.8,2,6.2,2c4.1,0,6.8-2.2,6.8-5.5C273.1,145.4,270,144.5,267.2,143.7"/>
<path class="st1" d="M259.7,194.8c1.1,0,2-0.9,2-2c0-1.1-0.9-2-2-2h-8.1c-1.1,0-2,0.9-2,2c0,1.1,0.9,2,2,2H259.7z"/>
<path class="st1" d="M276,194.8c1.1,0,2-0.9,2-2c0-1.1-0.9-2-2-2h-8.1c-1.1,0-2,0.9-2,2c0,1.1,0.9,2,2,2H276z"/>
<path class="st1" d="M292.2,194.8c1.1,0,2-0.9,2-2c0-1.1-0.9-2-2-2h-8.1c-1.1,0-2,0.9-2,2c0,1.1,0.9,2,2,2H292.2z"/>
<path class="st1" d="M308.4,194.8c1.1,0,2-0.9,2-2c0-1.1-0.9-2-2-2h-8.1c-1.1,0-2,0.9-2,2c0,1.1,0.9,2,2,2H308.4z"/>
<path class="st1" d="M324.7,194.8c1.1,0,2-0.9,2-2c0-1.1-0.9-2-2-2h-8.1c-1.1,0-2,0.9-2,2c0,1.1,0.9,2,2,2H324.7z"/>
<path class="st1" d="M237.4,168.4c0-1.1-0.9-2-2-2c-1.1,0-2,0.9-2,2v8.1c0,1.1,0.9,2,2,2c1.1,0,2-0.9,2-2V168.4z"/>
<path class="st1" d="M237.4,168.4c0-1.1-0.9-2-2-2c-1.1,0-2,0.9-2,2v8.1c0,1.1,0.9,2,2,2c1.1,0,2-0.9,2-2V168.4z"/>
<path class="st1" d="M243.5,194.8c1.1,0,2-0.9,2-2c0-1.1-0.9-2-2-2h-8.1c-1.1,0-2,0.9-2,2c0,1.1,0.9,2,2,2H243.5z"/>
<path class="st1" d="M233.4,192.8c0,1.1,0.9,2,2,2c1.1,0,2-0.9,2-2v-8.1c0-1.1-0.9-2-2-2c-1.1,0-2,0.9-2,2V192.8z"/>
<path class="st1" d="M324.7,194.8c1.1,0,2-0.9,2-2c0-1.1-0.9-2-2-2h-8.1c-1.1,0-2,0.9-2,2c0,1.1,0.9,2,2,2H324.7z"/>
<path class="st1" d="M292.2,154.2c1.1,0,2-0.9,2-2c0-1.1-0.9-2-2-2h-8.1c-1.1,0-2,0.9-2,2c0,1.1,0.9,2,2,2H292.2z"/>
<path class="st1" d="M308.4,154.2c1.1,0,2-0.9,2-2c0-1.1-0.9-2-2-2h-8.1c-1.1,0-2,0.9-2,2c0,1.1,0.9,2,2,2H308.4z"/>
<path class="st1" d="M324.7,154.2c1.1,0,2-0.9,2-2c0-1.1-0.9-2-2-2h-8.1c-1.1,0-2,0.9-2,2c0,1.1,0.9,2,2,2H324.7z"/>
<path class="st1" d="M308.4,194.8c1.1,0,2-0.9,2-2c0-1.1-0.9-2-2-2h-8.1c-1.1,0-2,0.9-2,2c0,1.1,0.9,2,2,2H308.4z"/>
<path class="st1" d="M342.9,168.4c0-1.1-0.9-2-2-2c-1.1,0-2,0.9-2,2v8.1c0,1.1,0.9,2,2,2c1.1,0,2-0.9,2-2V168.4z"/>
<path class="st1" d="M308.4,194.8c1.1,0,2-0.9,2-2c0-1.1-0.9-2-2-2h-8.1c-1.1,0-2,0.9-2,2c0,1.1,0.9,2,2,2H308.4z"/>
<path class="st1" d="M324.7,194.8c1.1,0,2-0.9,2-2c0-1.1-0.9-2-2-2h-8.1c-1.1,0-2,0.9-2,2c0,1.1,0.9,2,2,2H324.7z"/>
<path class="st1" d="M324.7,194.8c1.1,0,2-0.9,2-2c0-1.1-0.9-2-2-2h-8.1c-1.1,0-2,0.9-2,2c0,1.1,0.9,2,2,2H324.7z"/>
<path class="st1" d="M332.8,194.8c-1.1,0-2-0.9-2-2c0-1.1,0.9-2,2-2h8.1c1.1,0,2,0.9,2,2c0,1.1-0.9,2-2,2H332.8z"/>
<path class="st1" d="M342.9,192.8c0,1.1-0.9,2-2,2c-1.1,0-2-0.9-2-2v-8.1c0-1.1,0.9-2,2-2c1.1,0,2,0.9,2,2V192.8z"/>
<path class="st1" d="M308.4,154.2c1.1,0,2-0.9,2-2c0-1.1-0.9-2-2-2h-8.1c-1.1,0-2,0.9-2,2c0,1.1,0.9,2,2,2H308.4z"/>
<path class="st1" d="M324.7,154.2c1.1,0,2-0.9,2-2c0-1.1-0.9-2-2-2h-8.1c-1.1,0-2,0.9-2,2c0,1.1,0.9,2,2,2H324.7z"/>
<path class="st1" d="M324.7,154.2c1.1,0,2-0.9,2-2c0-1.1-0.9-2-2-2h-8.1c-1.1,0-2,0.9-2,2c0,1.1,0.9,2,2,2H324.7z"/>
<path class="st1" d="M332.8,150.2c-1.1,0-2,0.9-2,2c0,1.1,0.9,2,2,2h8.1c1.1,0,2-0.9,2-2c0-1.1-0.9-2-2-2H332.8z"/>
<path class="st1" d="M342.9,152.2c0-1.1-0.9-2-2-2c-1.1,0-2,0.9-2,2v8.1c0,1.1,0.9,2,2,2c1.1,0,2-0.9,2-2V152.2z"/>
</svg>
